<?xml version="1.0" encoding="utf-8"?>
<!-- Generator: Adobe Illustrator 27.5.0, SVG Export Plug-In . SVG Version: 6.00 Build 0)  -->
<svg version="1.1" xmlns="http://www.w3.org/2000/svg" xmlns:xlink="http://www.w3.org/1999/xlink" x="0px" y="0px"
	 viewBox="0 0 750 500" style="enable-background:new 0 0 750 500;" xml:space="preserve">
<g id="BACKGROUND">
	<rect style="fill:#F3DFC9;" width="750" height="500"/>
</g>
<g id="OBJECTS">
	<path style="fill:#E4B4B2;" d="M431.221,73.61c106.547,14.261,59.555,91.917,127.355,104.795
		c67.8,12.878,52.86,142.678-9.834,171.971s-84.649-46.47-146.766-8.557s-178.292,40.464-177.015-18.654
		c1.277-59.118-16.99,7.285-52.065-57.203s37.562-145.082,111.026-134.745C330.661,137.794,338.167,61.155,431.221,73.61z"/>
	<g>
		<path style="fill:#C83F52;" d="M448.355,411.468h161.937c0,0,20-10.547,6-89.238c-4.904-27.567,37.695-89.239,7-95.557
			c-38-7.823-53.557,36.454-55.698,62.062c-2.142,25.608-31.792,39-37.047,76.952c0,0-3.747-31.109,10.855-51.928
			c14.602-20.819,20.414-79.786-13.411-116.506c-33.825-36.721-41.023,38.915-42.165,56.738
			c-2.541,39.648-37.864,67.086-15.699,110.367c0,0-14.309-21.892-14.309-58.328s-6.737-82.757-41.522-76.788
			c-23.712,4.069,9.283,39.61-2.861,76.788S407.38,402.303,448.355,411.468z"/>
		<path style="fill:#A93045;" d="M480.103,279.372c0,0-33.384,53.134-9.976,84.986c0,0-58.948-1.088-59.978-54.015
			c0,0-25.121,78.837,38.206,101.125h166.937c0,0,19.686-13.291,10-48.433c-7-25.397-13-55.155-5.668-66.445
			c0,0-16.332,12.048-19.332,32.548s8.08,62.627-41,64.5c-49.08,1.873-38.809-17.932-53.154-47.216
			C491.792,317.139,477.292,322.804,480.103,279.372z"/>
		<path style="fill:#FFFFFF;" d="M568.696,401.347l-0.523-0.852c21.78-13.361,20.122-39.845,18.519-65.456
			c-0.757-12.101-1.473-23.531,0.107-33.723c4.962-31.996,22.911-56.681,23.092-56.926l0.805,0.593
			c-0.179,0.244-17.985,24.741-22.908,56.486c-1.563,10.085-0.852,21.463-0.098,33.508
			C589.311,360.883,590.988,387.671,568.696,401.347z"/>
		<path style="fill:#FFFFFF;" d="M513.972,401.253c-24.298-27.356-11.304-75.509-1.815-110.668
			c2.275-8.433,4.24-15.715,5.437-21.787c6.061-30.776-3.607-53.533-3.706-53.759l0.918-0.398c0.1,0.229,9.89,23.272,3.769,54.351
			c-1.202,6.106-3.172,13.404-5.452,21.854c-9.428,34.939-22.341,82.791,1.599,109.744L513.972,401.253z"/>
		<path style="fill:#FFFFFF;" d="M469.95,396.685c-42.158-16.009-35.562-66.649-31.197-100.159
			c2.541-19.504-0.345-32.577-3.214-40.109c-3.104-8.15-6.854-11.744-6.893-11.78l0.685-0.729
			c0.154,0.145,15.347,14.883,10.414,52.747c-5.495,42.183-7.661,84.581,30.561,99.095L469.95,396.685z"/>
	</g>
	<path style="fill:#251D35;" d="M98.048,411.468h324.845c0,0-11.818-30.66-50.233-32.635s-5.095-86.693-91.233-82.83
		c-114.179,5.12-40.046,81.536-109.067,69.025C116.657,354.932,98.048,411.468,98.048,411.468z"/>
	<g>
		<path style="fill:#2A6B90;" d="M187.821,411.468c0,0-48-6.385-26-89.238c9.872-37.18-24.756-67.808-33.793-95.755
			c-16.207-50.117,34.385-67.03,68.385-17.419c45.101,65.808,53.879,87.202,46.143,144.197c0,0,23.455-22.844,5.932-64.491
			s-18.392-52.473-4.759-93.88s8.091-69.53,43.896-73.19c60.138-6.147,22.594,113.156,31.645,138.292
			c9.051,25.136,32.531,46.015,11.964,91.121c0,0,34.312-10.546,26.449-57.701s11.804-74.074,35.471-69.115
			s6.292,32.425,11.479,68.692s26.687,70.708-33.563,118.488H187.821z"/>
		<path style="fill:#2C577C;" d="M144.14,257.341c0,0,23.98,9.272,35.95,39.249c11.97,29.977,9.405,88.972,67.544,93.247
			s80.772-110.255,80.772-110.255s27.433,39.63,2.828,71.523c0,0,28.887-11.086,27.286-51.3c0,0,8.384,64.969,46.219,74.081
			c0,0-13.685,28.434-33.667,37.583H184.365c0,0-35.005-8.163-27.852-60.427C162.878,304.529,169.75,294.989,144.14,257.341z"/>
		<path style="fill:#FFFFFF;" d="M240.864,406.868c-26.602-22.404-30.377-53.406-34.028-83.387
			c-2.178-17.882-4.235-34.771-10.878-49.594c-17.764-39.627-34.273-61.248-34.438-61.462l0.792-0.61
			c0.166,0.214,16.741,21.918,34.558,61.664c6.706,14.959,8.772,31.922,10.959,49.881c3.627,29.789,7.379,60.592,33.68,82.742
			L240.864,406.868z"/>
		<path style="fill:#FFFFFF;" d="M281.1,376.982l-0.824-0.566c32.468-47.287,15.839-78.958,1.169-106.9
			c-6.205-11.817-12.066-22.98-13.182-34.021c-1.905-18.844,4.795-40.484,10.752-55.32c6.446-16.054,13.435-27.823,13.505-27.94
			l0.858,0.513c-0.069,0.116-7.024,11.831-13.441,27.815c-5.912,14.727-12.563,36.194-10.679,54.832
			c1.097,10.847,6.914,21.927,13.072,33.656c7.093,13.511,15.134,28.824,17.117,46.387
			C301.719,335.561,295.718,355.693,281.1,376.982z"/>
		<path style="fill:#FFFFFF;" d="M341.433,406.948l-0.384-0.924c25.073-10.42,35.483-36.074,39.801-55.761
			c5.681-25.898,3.558-52.145-0.322-68.071c-8.543-35.058,6.442-43.727,7.085-44.079l0.481,0.876
			c-0.15,0.083-14.938,8.729-6.596,42.966c3.907,16.035,6.046,42.457,0.329,68.522C377.459,370.396,366.904,396.362,341.433,406.948
			z"/>
	</g>
	<g>
		<g>
			<path style="fill:#FFFFFF;" d="M467.793,418.611H351.288c-10.485,0-18.985-8.5-18.985-18.985V175.43
				c0-10.485,8.5-18.985,18.985-18.985h116.505c10.485,0,18.985,8.5,18.985,18.985v224.196
				C486.778,410.112,478.278,418.611,467.793,418.611z"/>
			<rect x="349.957" y="176.591" style="fill:#E4B4B2;" width="119.166" height="203.523"/>
			<circle style="fill:#E4B4B2;" cx="409.54" cy="399.633" r="12.799"/>
			<path style="fill:#E4B4B2;" d="M429.622,169.686h-40.163c-1.578,0-2.869-1.291-2.869-2.869l0,0c0-1.578,1.291-2.869,2.869-2.869
				h40.163c1.578,0,2.869,1.291,2.869,2.869l0,0C432.491,168.395,431.2,169.686,429.622,169.686z"/>
		</g>
		<path style="fill:#2A6B90;" d="M442.324,226.69H395.56c-7.99,0-14.466-6.477-14.466-14.466v-7.503
			c0-7.99,6.477-14.466,14.466-14.466h46.764c7.99,0,14.466,6.477,14.466,14.466v7.503
			C456.79,220.213,450.314,226.69,442.324,226.69z"/>
		<path style="fill:#C83F52;" d="M442.324,319.834H395.56c-7.99,0-14.466-6.477-14.466-14.466v-7.503
			c0-7.99,6.477-14.466,14.466-14.466h46.764c7.99,0,14.466,6.477,14.466,14.466v7.503
			C456.79,313.357,450.314,319.834,442.324,319.834z"/>
		<path style="fill:#FFFFFF;" d="M422.528,272.13h-47.667c-7.99,0-14.466-6.477-14.466-14.466v-7.503
			c0-7.99,6.477-14.466,14.466-14.466h47.667c7.99,0,14.466,6.477,14.466,14.466v7.503
			C436.995,265.654,430.518,272.13,422.528,272.13z"/>
		<path style="fill:#FFFFFF;" d="M422.528,366.452h-47.667c-7.99,0-14.466-6.477-14.466-14.466v-7.503
			c0-7.99,6.477-14.466,14.466-14.466h47.667c7.99,0,14.466,6.477,14.466,14.466v7.503
			C436.995,359.975,430.518,366.452,422.528,366.452z"/>
		<rect x="393.245" y="199.38" style="fill:#251D35;" width="50.979" height="3.214"/>
		<rect x="393.245" y="207.209" style="fill:#251D35;" width="50.979" height="3.214"/>
		<rect x="393.245" y="215.042" style="fill:#251D35;" width="22.867" height="3.214"/>
		<rect x="371.251" y="244.475" style="fill:#251D35;" width="50.979" height="3.214"/>
		<rect x="371.251" y="252.303" style="fill:#251D35;" width="50.979" height="3.214"/>
		<rect x="371.251" y="260.136" style="fill:#251D35;" width="22.867" height="3.214"/>
		<rect x="371.251" y="338.796" style="fill:#251D35;" width="50.979" height="3.214"/>
		<rect x="371.251" y="346.625" style="fill:#251D35;" width="50.979" height="3.214"/>
		<rect x="371.251" y="354.458" style="fill:#251D35;" width="22.867" height="3.214"/>
		<rect x="393.245" y="292.178" style="fill:#251D35;" width="50.979" height="3.214"/>
		<rect x="393.245" y="300.007" style="fill:#251D35;" width="50.979" height="3.214"/>
		<rect x="393.245" y="307.84" style="fill:#251D35;" width="22.867" height="3.214"/>
	</g>
	<g>
		<path style="fill:#C83F52;" d="M412.281,141.217c0-6.6-5.4-12-12-12h-84.79c-6.6,0-12,5.4-12,12v7.648h108.79V141.217z"/>
		<path style="fill:#FFFFFF;" d="M303.492,148.864v57.84c0,6.6,5.4,12,12,12h84.79c6.6,0,12-5.4,12-12v-57.84H303.492z"/>
		<path style="fill:#251D35;" d="M319.023,123.407L319.023,123.407c-1.691,0-3.074,1.383-3.074,3.074v9.47
			c0,1.691,1.383,3.074,3.074,3.074h0c1.691,0,3.074-1.383,3.074-3.074v-9.47C322.098,124.791,320.714,123.407,319.023,123.407z"/>
		<path style="fill:#251D35;" d="M329.794,123.407L329.794,123.407c-1.691,0-3.074,1.383-3.074,3.074v9.47
			c0,1.691,1.384,3.074,3.074,3.074l0,0c1.691,0,3.074-1.383,3.074-3.074v-9.47C332.868,124.791,331.485,123.407,329.794,123.407z"
			/>
		<path style="fill:#251D35;" d="M384.248,123.407L384.248,123.407c-1.691,0-3.074,1.383-3.074,3.074v9.47
			c0,1.691,1.383,3.074,3.074,3.074l0,0c1.691,0,3.074-1.383,3.074-3.074v-9.47C387.322,124.791,385.939,123.407,384.248,123.407z"
			/>
		<path style="fill:#251D35;" d="M395.018,123.407L395.018,123.407c-1.691,0-3.074,1.383-3.074,3.074v9.47
			c0,1.691,1.383,3.074,3.074,3.074l0,0c1.691,0,3.074-1.383,3.074-3.074v-9.47C398.093,124.791,396.709,123.407,395.018,123.407z"
			/>
		<g>
			<rect x="311.948" y="153.808" style="fill:#CDCECF;" width="14.938" height="14.938"/>
			<rect x="330.928" y="153.808" style="fill:#CDCECF;" width="14.938" height="14.938"/>
			<rect x="350.361" y="153.808" style="fill:#CDCECF;" width="14.938" height="14.938"/>
			<rect x="369.341" y="153.808" style="fill:#CDCECF;" width="14.938" height="14.938"/>
			<rect x="388.623" y="153.808" style="fill:#CDCECF;" width="14.938" height="14.938"/>
		</g>
		<g>
			<rect x="311.948" y="173.267" style="fill:#CDCECF;" width="14.938" height="14.938"/>
			<rect x="330.928" y="173.267" style="fill:#C83F52;" width="14.938" height="14.938"/>
			<rect x="350.361" y="173.267" style="fill:#CDCECF;" width="14.938" height="14.938"/>
			<rect x="369.341" y="173.267" style="fill:#CDCECF;" width="14.938" height="14.938"/>
			<rect x="388.623" y="173.267" style="fill:#CDCECF;" width="14.938" height="14.938"/>
		</g>
		<g>
			<rect x="311.948" y="191.599" style="fill:#CDCECF;" width="14.938" height="14.938"/>
			<rect x="330.928" y="191.599" style="fill:#CDCECF;" width="14.938" height="14.938"/>
			<rect x="350.361" y="191.599" style="fill:#CDCECF;" width="14.938" height="14.938"/>
			<rect x="369.341" y="191.599" style="fill:#CDCECF;" width="14.938" height="14.938"/>
			<rect x="388.623" y="191.599" style="fill:#CDCECF;" width="14.938" height="14.938"/>
		</g>
	</g>
	<g>
		<circle style="fill:#2A6B90;" cx="486.164" cy="123.407" r="43.217"/>
		<circle style="fill:#FFFFFF;" cx="486.164" cy="123.407" r="34.154"/>
		<path style="fill:#C83F52;" d="M486.164,130.964c-0.031,0-0.062,0-0.093-0.002c-0.69-0.025-1.34-0.336-1.793-0.857l-14.408-16.562
			c-0.906-1.042-0.797-2.621,0.245-3.527c1.042-0.906,2.62-0.796,3.526,0.245l12.658,14.55l17.997-17.83
			c0.98-0.972,2.563-0.965,3.536,0.017c0.972,0.98,0.964,2.563-0.017,3.535l-19.893,19.707
			C487.454,130.705,486.822,130.964,486.164,130.964z"/>
	</g>
	<g>
		<path style="fill:#D27878;" d="M274.829,188.802c0,0,3.955-10.875,9.392-10.381c5.438,0.494,11.93,14.83,12.144,19.773
			s-7.3,5.969-8.783,8.935c-1.483,2.966-3.457,14.007,1.583,16.276c1.69,0.761,1.61,13.234,3.587,16.694
			c1.977,3.46,4.814,30.134,4.814,30.134l-40.155-0.992c0,0-3.494-32.256,3.921-36.21s12.47-3.539,13.458-11.448
			C275.778,213.674,271.437,201.414,274.829,188.802z"/>
		<path style="fill:#C83F52;" d="M289.035,179.86c2.505,3.821-11.357,7.992-11.246,9.093c0.11,1.101,4.2,7.984,3.228,8.094
			c-0.972,0.11-3.873-2.36-5.305-0.378s-0.954,2.911,1.8,4.343c2.753,1.432,4.138-0.629,4.358-0.189
			c0.22,0.441-6.596,19.445-14.446-4.154c-2.081-6.254,2.102-6.634,1.111-9.387C267.543,184.529,278.898,164.397,289.035,179.86z"/>
		<path style="fill:#D27878;" d="M290.184,183.288c0,0,5.929,6.035,5.855,6.555c-0.074,0.519-1.41,3.709-2.003,3.709
			C293.443,193.552,289.517,183.219,290.184,183.288z"/>
		<path style="fill:#251D35;" d="M287.737,188.42c0,0,1.997,1.422,0.958,2.684C287.656,192.365,285.504,187.692,287.737,188.42z"/>
		<path style="fill:#251D35;" d="M291.885,195.333c0,0,2.374,2.671,3.487,0c0,0,0.445,2.597-1.113,2.671
			S291.885,195.333,291.885,195.333z"/>
		<circle style="fill:#CB576A;" cx="288.182" cy="194.298" r="2.562"/>
		<path style="fill:#251D35;" d="M287.012,186.328c0,0-2.156,2.442-2.156,2.092C284.856,188.07,284.98,185.325,287.012,186.328z"/>
		<path style="fill:#251D35;" d="M294.157,427.859c0,0-1.529,11.882,0,12.677c1.53,0.795,26.174,1.59,27.764,0
			c1.59-1.59-14.842-11.023-15.371-13.064C306.021,425.431,294.157,427.859,294.157,427.859z"/>
		<path style="fill:#251D35;" d="M233.31,413.946c0,0-7.56,9.293-6.679,10.774c0.881,1.482,21.409,15.142,23.598,14.628
			s-6.807-17.189-6.181-19.202C244.674,418.134,233.31,413.946,233.31,413.946z"/>
		<path style="fill:#D27878;" d="M278.926,232.152c0,0,21.416,2.687,30.447-7.612c9.031-10.299,18.764-37.508,27.261-42.032
			c8.497-4.524-1.416,4.201-1.593,5.857c-0.177,1.656,5.28,2.721,5.03,7.499s-4.676,4.247-6.977,10.089
			c-2.301,5.842-7.258,50.035-51.77,50.804C281.324,256.757,279.579,239.192,278.926,232.152z"/>
		<path style="fill:#251D35;" d="M272.082,220.353c0,0,16.306-1.254,17.479,0.627s1.592,4.536,1.592,4.536s2.718,5.481,9.795,9.148
			c9.928,5.143-4.762,24.662,0,39.655c3,9.444,3.543,24.538,3.543,24.538l-53.217-1.333c0,0,4.313-27.003,0.912-48.409
			c-2.829-17.808,18.485-21.878,18.642-22.498C270.985,225.996,271.323,220.407,272.082,220.353z"/>
		<path style="fill:#F3DFC9;" d="M243.989,285.231"/>
		<path style="fill:none;stroke:#CDCDCD;stroke-miterlimit:10;" d="M311.604,283.763"/>
		<path style="fill:#D27878;" d="M304.59,237.967c0,0,13.601,37.029,25.222,41.379c11.621,4.35,31.992,7.304,35.127,10.672
			s-7.348,0.056-7.348,0.056s7.963,3.331,7.962,4.744c-0.001,1.413-9.069-1.627-9.069-1.627s7.372,3.089,6.817,4.488
			c-0.555,1.4-4.23,1.18-8.196,0.062c-3.965-1.118-24.838-0.248-34.807-5.757c-9.969-5.509-30.272-32.716-30.686-35.707
			C289.199,253.286,304.59,237.967,304.59,237.967z"/>
		<path style="fill:#251D35;" d="M301.282,272.331c0,0,15.667-9.732,15.667-12.931c0-3.198-11.544-30.736-30-33.403
			c-12.138-1.754-6.168,18.832-3.256,28.333C286.605,263.832,296.95,272.579,301.282,272.331z"/>
		<path style="fill:#FFFFFF;" d="M253.024,281.08c0,0,46.673-3.584,49.549,0c2.876,3.584,21.142,50.225,20.509,68.655
			c-0.633,18.43-5.917,78.422-9.133,78.124c-6.196-0.573-28,0.729-28.5,0.017c-0.5-0.712,3.53-67.057,3.765-70.385
			c0.235-3.327-7.265-18.55-17.765-35.689C260.949,304.664,253.905,306.86,253.024,281.08z"/>
		<path style="fill:#FFFFFF;" d="M253.051,280.925c0,0,42.733,15.998,43.954,20.076c1.221,4.078,0.112,49.381-7.29,64.102
			s-36.924,62.047-39.141,59.861c-2.218-2.186-25.198-13.327-25.377-14.108c-0.179-0.781,30.152-50.562,31.596-53.171
			c1.444-2.609,0.441-18.018-2.512-36.2C251.327,303.302,244.263,302.232,253.051,280.925z"/>
		<path style="fill:#C83F52;" d="M281.869,200.823c0,0,2.634,8.267-2.236,11.341c-4.87,3.074,2.947,13.25-6.935,17.25
			c-7.059,2.857-6.65,2.166-11.385,13.675c-2.86,6.951-17.324,10.018-23.115,1.575c-3.247-4.734-3.194-16.75,3.771-18.772
			c6.002-1.742-0.555-18.512,11.054-23.293c14.4-5.93,1.925-16.49,19.26-23.417c0,0-2.085,17.482,1.415,21.982
			S281.869,200.823,281.869,200.823z"/>
		<path style="fill:#A93045;" d="M254.714,242.05c-0.009-0.379-0.182-9.321,4.427-12.385c1.887-1.254,3.708-2.168,5.313-2.975
			c3.749-1.883,6.225-3.127,6.396-6.764c0.061-1.301,0.032-2.361,0.006-3.295c-0.082-2.979-0.123-4.474,3.218-6.527
			c3.939-2.42,4.472-7.495,4.478-7.545l0.746,0.072c-0.021,0.223-0.577,5.499-4.831,8.112c-2.972,1.826-2.942,2.927-2.861,5.868
			c0.026,0.948,0.055,2.022-0.007,3.351c-0.191,4.075-3.112,5.542-6.809,7.399c-1.587,0.797-3.386,1.701-5.235,2.93
			c-4.264,2.833-4.095,11.652-4.092,11.741L254.714,242.05z"/>
		<path style="fill:#A93045;" d="M246.57,243.185c-0.016-0.125-1.522-12.596,7.294-15.321c4.598-1.421,5.395-5.913,6.602-12.711
			l0.031-0.176c0.703-3.959,3.303-5.47,5.818-6.931c2.067-1.2,4.02-2.334,4.705-4.802c0.381-1.371,0.654-2.615,0.918-3.819
			c0.795-3.625,1.423-6.489,4.326-8.46l0.422,0.62c-2.656,1.804-3.226,4.403-4.015,8.001c-0.254,1.157-0.542,2.468-0.928,3.859
			c-0.767,2.762-2.945,4.026-5.051,5.25c-2.367,1.375-4.815,2.796-5.457,6.413l-0.031,0.176c-1.254,7.07-2.083,11.741-7.118,13.297
			c-8.212,2.539-6.788,14.389-6.772,14.509L246.57,243.185z"/>
		<path style="fill:#A93045;" d="M239.734,238.025c-0.632-4.053,1.857-6.757,4.493-9.62c2.577-2.799,5.241-5.693,5.317-10.156
			c0.105-6.188,2.909-8.187,6.459-10.717c1.856-1.323,3.961-2.823,6.009-5.184c2.761-3.182,3.782-7.484,4.682-11.281
			c1.043-4.396,1.944-8.193,5.186-9.268c5.928-1.964,9.926,1.555,10.093,1.705l-0.501,0.558c-0.038-0.033-3.854-3.375-9.355-1.551
			c-2.846,0.943-3.702,4.551-4.692,8.729c-0.92,3.88-1.964,8.278-4.846,11.599c-2.107,2.428-4.25,3.956-6.14,5.303
			c-3.51,2.502-6.046,4.31-6.145,10.119c-0.081,4.749-2.968,7.885-5.515,10.651c-2.51,2.726-4.88,5.3-4.304,8.997L239.734,238.025z"
			/>
		<path style="fill:#A93045;" d="M285.25,181.285c-0.003-0.016-0.306-1.636-1.886-2.576c-1.577-0.938-3.855-0.921-6.77,0.051
			l-0.237-0.711c3.139-1.049,5.63-1.04,7.405,0.023c1.875,1.124,2.214,3.006,2.228,3.085L285.25,181.285z"/>
	</g>
	<g>
		<g>
			<path style="fill:#D27878;" d="M539.008,188.802c0,0-3.955-10.875-9.392-10.381s-11.93,14.83-12.144,19.773
				s7.3,5.969,8.783,8.935s3.361,13.804-1.583,16.276c-4.943,2.472-2.516,8.126-4.493,11.587c-1.977,3.46-3.908,35.242-3.908,35.242
				l40.155-0.992c0,0,3.494-32.256-3.921-36.21c-7.415-3.955-12.47-3.539-13.458-11.448
				C538.059,213.674,542.4,201.414,539.008,188.802z"/>
			<path style="fill:#251D35;" d="M524.802,179.86c-2.505,3.821,10.399,1.696,11.247,9.093c0.126,1.1-4.2,7.984-3.228,8.094
				c0.972,0.11,3.873-2.36,5.305-0.378s0.954,2.911-1.8,4.343c-2.753,1.432-4.138-0.629-4.358-0.189s8.479,17.074,16.329-6.525
				c2.081-6.254-6.304-4.965-3.55-5.956C549.481,186.64,534.939,164.397,524.802,179.86z"/>
			<path style="fill:#D27878;" d="M523.653,183.288c0,0-5.929,6.035-5.855,6.555c0.074,0.519,1.41,3.709,2.003,3.709
				S524.321,183.219,523.653,183.288z"/>
			<path style="fill:#251D35;" d="M526.1,188.42c0,0-1.997,1.422-0.958,2.684C526.181,192.365,528.333,187.692,526.1,188.42z"/>
			<path style="fill:#251D35;" d="M521.952,195.333c0,0-2.374,2.671-3.487,0c0,0-0.445,2.597,1.113,2.671
				S521.952,195.333,521.952,195.333z"/>
			<circle style="fill:#CB576A;" cx="525.655" cy="194.298" r="2.562"/>
			<path style="fill:#251D35;" d="M526.825,186.328c0,0,2.156,2.442,2.156,2.092C528.981,188.07,528.857,185.325,526.825,186.328z"
				/>
			<path style="fill:#251D35;" d="M528.981,183.012c0,0-4.941-0.422-5.888-4.607c-0.947-4.186,5.206-9.984,10.768-9.866
				s-0.63,3.586-0.63,3.586s5.955-1.975,7.73,0s-2.84,1.951-2.495,3.999C539.075,179.736,534.309,182.736,528.981,183.012z"/>
		</g>
		<path style="fill:#251D35;" d="M597.571,413.946c0,0,7.56,9.293,6.679,10.774c-0.881,1.482-21.409,15.142-23.598,14.628
			c-2.189-0.514,6.807-17.189,6.181-19.202C586.207,418.134,597.571,413.946,597.571,413.946z"/>
		<path style="fill:none;stroke:#CDCDCD;stroke-miterlimit:10;" d="M503.845,283.763"/>
		<path style="fill:#251D35;" d="M521.292,427.859c0,0,1.529,11.882,0,12.677c-1.529,0.795-26.174,1.59-27.764,0
			c-1.59-1.59,14.842-11.023,15.371-13.064C509.428,425.431,521.292,427.859,521.292,427.859z"/>
		<path style="fill:#251D35;" d="M537.762,277.444c0,0-14.486,18.074-15.707,22.153c-1.221,4.078,11.224,50.786,18.626,65.506
			c7.402,14.72,36.924,62.047,39.141,59.861c2.218-2.186,25.198-13.327,25.377-14.108c0.179-0.781-30.152-50.562-31.596-53.171
			c-1.444-2.609-6.288-50.592-13.369-67.597C553.917,274.914,543.488,276.622,537.762,277.444z"/>
		<path style="fill:#251D35;" d="M536.217,285.231c0,0-28.197-2.145-31.029,1.034c-2.831,3.179-11.313,50.766-10.832,67.236
			c0.48,16.47,4.363,75.638,7.298,74.595c0,0,30.93,0.632,31.423,0c0.493-0.632-0.917-63.79-1.122-66.764
			c-0.204-2.975,1.898-41.333,11.852-67.532C549.644,278.434,541.753,286.908,536.217,285.231z"/>
		<path style="fill:#2A6B90;" d="M539.047,221.583c0,0-5.817,9.365-13.392,7.884c-4.655-0.91-0.982-6.062-0.982-6.062
			s-2.167,0.719-9.244,4.228c-9.928,4.923-12.988,12.266-11.583,26.759c0.915,9.444-0.789,30.839-0.789,30.839h63.898
			c0,0-1.359-19.303-3.693-41.425c-1.811-17.17-13.324-20.389-14.629-21.112C548.096,222.396,539.806,221.635,539.047,221.583z"/>
		<path style="fill:#F3DFC9;" d="M571.46,285.231"/>
		<path style="fill:#2A6B90;" d="M491.091,260.316c0,0,8.466-17.938,15.157-24.622c6.691-6.684,11.276,24.442,11.276,24.442
			L491.091,260.316z"/>
		<path style="fill:#2C577C;" d="M523.729,272.336c0,0,17.639,5.386,31.43-6.454c0,0,5.938,14.519,4.934,17.882
			s-39.983,5.234-39.983,5.234L523.729,272.336z"/>
		<rect x="479.621" y="260.316" style="fill:#FFFFFF;" width="49.36" height="42.348"/>
		<path style="fill:#D27878;" d="M527.118,283.703c0,0-7.325,3.628-7.009,5.294c0.316,1.667,5.483,0,5.483,0s-5,3.333-4.667,4.667
			c0.333,1.333,5.5,0,5.5,0s-5.177,2.623-4.167,4.667c0.496,1.002,4.602-2,10.884-3s40.419-1.247,44.585-7.18
			c4.167-5.933-8.469-38.987-9.469-38.987s-15.5,5-15.667,6.667c-0.167,1.667,5.615,19.495,5.167,20.333
			C556.383,278.735,534.258,280.765,527.118,283.703z"/>
		<path style="fill:#D27878;" d="M478.98,287.528c0,0,5.857-1.92,6.782-0.93c0.925,0.99-6.141,3.705-6.141,3.705
			s8.321-1.305,6.394,0.896c-0.906,1.035-5.703,3.393-5.703,3.393s6.707-1.211,6.707-0.484c0,1.516-6.129,4.979-8.904,4.75
			C475.341,298.627,473.682,289.384,478.98,287.528z"/>
		<path style="fill:#2A6B90;" d="M551.357,263.609c0,0,21.83-2.655,23.797-6.195s-5.703-23.207-11.898-29.304
			c-6.195-6.097-18.122-5.934-18.122-5.934S542.31,256.234,551.357,263.609z"/>
	</g>
</g>
</svg>
